<svg xmlns="http://www.w3.org/2000/svg" width="69.648" height="82.91" viewBox="0 0 69.648 82.91">
  <g id="Layer_x0020_1" transform="translate(0 0.002)">
    <g id="_2459070011776" transform="translate(0 -0.002)">
      <path id="Path_1" data-name="Path 1" d="M117.206,286.039c4.866,1.556,11.934-3.916,16.86-1.557,4.261,2.041,5.518,8.244,5.5,14.309l-.009,30.108c-.037,6.244-.479,4.048,2.12,7.568,3.388-1.586,2.755-3.566,2.759-8.062l.095-30.115c0-3.333-.325-6.066,1.375-8.854,1.236-2.027,2.616-4.374,4.748-5.1,6.666-2.272,12.725,3.21,17.295,1.89l.213-2.942c-2.38-1.522-22.922-7.6-27.117-7.148-3.654.39-10,2.5-13.837,3.516-9.5,2.511-11.629,1.922-10,6.389Z" transform="translate(-107.175 -253.557)" fill="#fff" fill-rule="evenodd"/>
      <path id="Path_2" data-name="Path 2" d="M2.252,8.157,0,9.993c.4,2.589.539,2.986,1.724,4.521,4.9.6,25.94-7.263,33.1-7.709C42.328,6.337,74.476,20.8,69.03,9.539c-.98-2.027-8.985-3.46-12.485-4.354C50.638,3.677,44.486,2.087,38.661.4,30.147-2.057,11.936,7.441,2.252,8.157Z" transform="translate(0 0.002)" fill="#fff" fill-rule="evenodd"/>
      <path id="Path_3" data-name="Path 3" d="M87.677,159.028c4.2.692,20.925-5.756,26.948-6.1,6.685-.384,21.524,7.121,27.334,5.6,1.427-5.108-2.944-5.168-11.763-7.406-18.845-4.781-12.152-5.444-31.787.413-2.452.732-5.1,1.516-7.736,2.126C86.468,154.633,86.334,155.354,87.677,159.028Z" transform="translate(-79.821 -135.301)" fill="#fff" fill-rule="evenodd"/>
      <path id="Path_4" data-name="Path 4" d="M192.081,395.2c-.434,6.51-.059,14.128-.05,20.762.011,7.283-1.648,10.832,4.957,15.213l-.024-37.143Z" transform="translate(-176.181 -361.843)" fill="#fff" fill-rule="evenodd"/>
      <path id="Path_5" data-name="Path 5" d="M600.6,431.617c5.838-5.364,4.866-4.7,4.882-10.27l.012-25.673-4.972-1.154Z" transform="translate(-551.466 -362.293)" fill="#fff" fill-rule="evenodd"/>
      <path id="Path_6" data-name="Path 6" d="M0,101.726,2.252,99.89Z" transform="translate(0 -91.73)" fill="#fff" fill-rule="evenodd"/>
    </g>
  </g>
</svg>
